<svg width="20" height="20" viewBox="0 0 20 20" fill="none" xmlns="http://www.w3.org/2000/svg">
<path d="M7.75781 12.25L9.00781 13.5L12.3411 10.1667" stroke="#999999" stroke-width="1.5" stroke-linecap="round" stroke-linejoin="round"/>
<path d="M8.33268 5.00002H11.666C13.3327 5.00002 13.3327 4.16669 13.3327 3.33335C13.3327 1.66669 12.4993 1.66669 11.666 1.66669H8.33268C7.49935 1.66669 6.66602 1.66669 6.66602 3.33335C6.66602 5.00002 7.49935 5.00002 8.33268 5.00002Z" stroke="#999999" stroke-width="1.5" stroke-miterlimit="10" stroke-linecap="round" stroke-linejoin="round"/>
<path d="M13.3333 3.34998C16.1083 3.49998 17.5 4.52498 17.5 8.33331V13.3333C17.5 16.6666 16.6667 18.3333 12.5 18.3333H7.5C3.33333 18.3333 2.5 16.6666 2.5 13.3333V8.33331C2.5 4.53331 3.89167 3.49998 6.66667 3.34998" stroke="#999999" stroke-width="1.5" stroke-miterlimit="10" stroke-linecap="round" stroke-linejoin="round"/>
</svg>
