<svg width="24" height="25" viewBox="0 0 24 25" fill="none" xmlns="http://www.w3.org/2000/svg">
<path d="M10.0495 2.57398L4.02953 6.50398C2.09953 7.76398 2.09953 10.584 4.02953 11.844L10.0495 15.774C11.1295 16.484 12.9095 16.484 13.9895 15.774L19.9795 11.844C21.8995 10.584 21.8995 7.77398 19.9795 6.51398L13.9895 2.58398C12.9095 1.86398 11.1295 1.86398 10.0495 2.57398Z" stroke="#0072C3" stroke-width="1.5" stroke-linecap="round" stroke-linejoin="round"/>
<path d="M5.62914 13.124L5.61914 17.814C5.61914 19.084 6.59914 20.444 7.79914 20.844L10.9891 21.904C11.5391 22.084 12.4491 22.084 13.0091 21.904L16.1991 20.844C17.3991 20.444 18.3791 19.084 18.3791 17.814V13.174" stroke="#0072C3" stroke-width="1.5" stroke-linecap="round" stroke-linejoin="round"/>
<path d="M21.4004 15.0439V9.04395" stroke="#0072C3" stroke-width="1.5" stroke-linecap="round" stroke-linejoin="round"/>
</svg>
