<svg width="24" height="25" viewBox="0 0 24 25" fill="none" xmlns="http://www.w3.org/2000/svg">
<path d="M19.3009 7.96393V13.114C19.3009 16.194 17.5409 17.5139 14.9009 17.5139H6.11093C5.66093 17.5139 5.23093 17.474 4.83093 17.384C4.58093 17.344 4.34094 17.274 4.12094 17.194C2.62094 16.634 1.71094 15.334 1.71094 13.114V7.96393C1.71094 4.88393 3.47093 3.56396 6.11093 3.56396H14.9009C17.1409 3.56396 18.7509 4.51396 19.1809 6.68396C19.2509 7.08396 19.3009 7.49393 19.3009 7.96393Z" stroke="#0072C3" stroke-width="1.5" stroke-miterlimit="10" stroke-linecap="round" stroke-linejoin="round"/>
<path d="M22.302 10.9641V16.1141C22.302 19.1941 20.542 20.514 17.902 20.514H9.11203C8.37203 20.514 7.70204 20.4141 7.12204 20.1941C5.93204 19.7541 5.12203 18.8441 4.83203 17.3841C5.23203 17.4741 5.66203 17.514 6.11203 17.514H14.902C17.542 17.514 19.302 16.1941 19.302 13.1141V7.96405C19.302 7.49405 19.262 7.07408 19.182 6.68408C21.082 7.08408 22.302 8.42405 22.302 10.9641Z" stroke="#0072C3" stroke-width="1.5" stroke-miterlimit="10" stroke-linecap="round" stroke-linejoin="round"/>
<path d="M10.4994 13.1838C11.9574 13.1838 13.1394 12.0019 13.1394 10.5438C13.1394 9.08579 11.9574 7.90381 10.4994 7.90381C9.04136 7.90381 7.85938 9.08579 7.85938 10.5438C7.85938 12.0019 9.04136 13.1838 10.4994 13.1838Z" stroke="#0072C3" stroke-width="1.5" stroke-miterlimit="10" stroke-linecap="round" stroke-linejoin="round"/>
<path d="M4.78125 8.34399V12.744" stroke="#0072C3" stroke-width="1.5" stroke-miterlimit="10" stroke-linecap="round" stroke-linejoin="round"/>
<path d="M16.2227 8.34424V12.7443" stroke="#0072C3" stroke-width="1.5" stroke-miterlimit="10" stroke-linecap="round" stroke-linejoin="round"/>
</svg>
