<svg width="24" height="25" viewBox="0 0 24 25" fill="none" xmlns="http://www.w3.org/2000/svg">
<path d="M22 16.7839V4.71389C22 3.51389 21.02 2.62389 19.83 2.72389H19.77C17.67 2.90389 14.48 3.97389 12.7 5.09389L12.53 5.20389C12.24 5.38389 11.76 5.38389 11.47 5.20389L11.22 5.05389C9.44 3.94389 6.26 2.88389 4.16 2.71389C2.97 2.61389 2 3.51389 2 4.70389V16.7839C2 17.7439 2.78 18.6439 3.74 18.7639L4.03 18.8039C6.2 19.0939 9.55 20.1939 11.47 21.2439L11.51 21.2639C11.78 21.4139 12.21 21.4139 12.47 21.2639C14.39 20.2039 17.75 19.0939 19.93 18.8039L20.26 18.7639C21.22 18.6439 22 17.7439 22 16.7839Z" stroke="#0072C3" stroke-width="1.5" stroke-linecap="round" stroke-linejoin="round"/>
<path d="M12 5.53394V20.5339" stroke="#0072C3" stroke-width="1.5" stroke-linecap="round" stroke-linejoin="round"/>
<path d="M7.75 8.53394H5.5" stroke="#0072C3" stroke-width="1.5" stroke-linecap="round" stroke-linejoin="round"/>
<path d="M8.5 11.5339H5.5" stroke="#0072C3" stroke-width="1.5" stroke-linecap="round" stroke-linejoin="round"/>
</svg>
